<mxfile host="Electron" agent="Mozilla/5.0 (Windows NT 10.0; Win64; x64) AppleWebKit/537.36 (KHTML, like Gecko) draw.io/28.0.6 Chrome/138.0.7204.100 Electron/37.2.3 Safari/537.36" version="28.0.6">
  <diagram name="Page-1" id="qqHxshNKzfrLZh1UEdl0">
    <mxGraphModel dx="1426" dy="841" grid="1" gridSize="10" guides="1" tooltips="1" connect="1" arrows="1" fold="1" page="1" pageScale="1" pageWidth="827" pageHeight="1169" math="0" shadow="0">
      <root>
        <mxCell id="0" />
        <mxCell id="1" parent="0" />
        <mxCell id="aIcxHGJeKE5EbABPJrg_-14" value="" style="rounded=0;whiteSpace=wrap;html=1;strokeColor=none;" vertex="1" parent="1">
          <mxGeometry x="10" y="30" width="800" height="190" as="geometry" />
        </mxCell>
        <mxCell id="aIcxHGJeKE5EbABPJrg_-13" value="" style="rounded=0;whiteSpace=wrap;html=1;fillColor=#f5f5f5;fontColor=#333333;strokeColor=#666666;" vertex="1" parent="1">
          <mxGeometry x="260" y="40" width="300" height="170" as="geometry" />
        </mxCell>
        <mxCell id="aIcxHGJeKE5EbABPJrg_-8" value="" style="rounded=0;whiteSpace=wrap;html=1;fillColor=#f5f5f5;fontColor=#333333;strokeColor=#666666;" vertex="1" parent="1">
          <mxGeometry x="590" y="40" width="210" height="170" as="geometry" />
        </mxCell>
        <mxCell id="aIcxHGJeKE5EbABPJrg_-4" value="" style="rounded=0;whiteSpace=wrap;html=1;fillColor=#f5f5f5;fontColor=#333333;strokeColor=#666666;" vertex="1" parent="1">
          <mxGeometry x="20" y="40" width="210" height="170" as="geometry" />
        </mxCell>
        <mxCell id="WqGlyLl2qV-f8KXg5RLX-1" value="Host" style="shape=umlFrame;whiteSpace=wrap;html=1;pointerEvents=0;fontStyle=1;fontSize=14;" parent="1" vertex="1">
          <mxGeometry x="20" y="40" width="210" height="170" as="geometry" />
        </mxCell>
        <mxCell id="aIcxHGJeKE5EbABPJrg_-2" style="edgeStyle=orthogonalEdgeStyle;rounded=0;orthogonalLoop=1;jettySize=auto;html=1;exitX=0.25;exitY=1;exitDx=0;exitDy=0;entryX=0.25;entryY=0;entryDx=0;entryDy=0;" edge="1" parent="1" source="WqGlyLl2qV-f8KXg5RLX-4" target="aIcxHGJeKE5EbABPJrg_-1">
          <mxGeometry relative="1" as="geometry" />
        </mxCell>
        <mxCell id="WqGlyLl2qV-f8KXg5RLX-4" value="Shared AR" style="html=1;dropTarget=0;whiteSpace=wrap;fontSize=17;fillColor=#fff2cc;strokeColor=#d6b656;" parent="1" vertex="1">
          <mxGeometry x="50" y="80" width="150" height="40" as="geometry" />
        </mxCell>
        <mxCell id="WqGlyLl2qV-f8KXg5RLX-5" value="" style="shape=module;jettyWidth=8;jettyHeight=4;" parent="WqGlyLl2qV-f8KXg5RLX-4" vertex="1">
          <mxGeometry x="1" width="20" height="20" relative="1" as="geometry">
            <mxPoint x="-27" y="7" as="offset" />
          </mxGeometry>
        </mxCell>
        <mxCell id="WqGlyLl2qV-f8KXg5RLX-8" value="Lightship Server" style="shape=umlFrame;whiteSpace=wrap;html=1;pointerEvents=0;fontStyle=1;fontSize=13;" parent="1" vertex="1">
          <mxGeometry x="260" y="40" width="300" height="170" as="geometry" />
        </mxCell>
        <mxCell id="WqGlyLl2qV-f8KXg5RLX-10" value="" style="whiteSpace=wrap;html=1;aspect=fixed;fillColor=#dae8fc;strokeColor=#6c8ebf;" parent="1" vertex="1">
          <mxGeometry x="345" y="60" width="130" height="130" as="geometry" />
        </mxCell>
        <mxCell id="WqGlyLl2qV-f8KXg5RLX-12" value="+ Shared&amp;nbsp;&lt;span style=&quot;background-color: transparent; color: light-dark(rgb(0, 0, 0), rgb(255, 255, 255));&quot;&gt;Origin&lt;/span&gt;" style="text;strokeColor=none;fillColor=none;align=left;verticalAlign=top;spacingLeft=4;spacingRight=4;overflow=hidden;rotatable=0;points=[[0,0.5],[1,0.5]];portConstraint=eastwest;whiteSpace=wrap;html=1;fontSize=16;" parent="1" vertex="1">
          <mxGeometry x="345" y="86" width="125" height="44" as="geometry" />
        </mxCell>
        <mxCell id="WqGlyLl2qV-f8KXg5RLX-13" value="+ Anchors" style="text;strokeColor=none;fillColor=none;align=left;verticalAlign=top;spacingLeft=4;spacingRight=4;overflow=hidden;rotatable=0;points=[[0,0.5],[1,0.5]];portConstraint=eastwest;whiteSpace=wrap;html=1;fontSize=16;" parent="1" vertex="1">
          <mxGeometry x="345" y="152" width="100" height="26" as="geometry" />
        </mxCell>
        <mxCell id="WqGlyLl2qV-f8KXg5RLX-14" value="Room" style="text;align=center;fontStyle=1;verticalAlign=middle;spacingLeft=3;spacingRight=3;strokeColor=none;rotatable=0;points=[[0,0.5],[1,0.5]];portConstraint=eastwest;html=1;fontSize=17;" parent="1" vertex="1">
          <mxGeometry x="370" y="60" width="80" height="26" as="geometry" />
        </mxCell>
        <mxCell id="WqGlyLl2qV-f8KXg5RLX-15" value="Client" style="shape=umlFrame;whiteSpace=wrap;html=1;pointerEvents=0;fontStyle=1;fontSize=14;" parent="1" vertex="1">
          <mxGeometry x="590" y="40" width="210" height="170" as="geometry" />
        </mxCell>
        <mxCell id="aIcxHGJeKE5EbABPJrg_-7" style="edgeStyle=orthogonalEdgeStyle;rounded=0;orthogonalLoop=1;jettySize=auto;html=1;exitX=0.75;exitY=1;exitDx=0;exitDy=0;entryX=0.75;entryY=0;entryDx=0;entryDy=0;" edge="1" parent="1" source="WqGlyLl2qV-f8KXg5RLX-20" target="aIcxHGJeKE5EbABPJrg_-5">
          <mxGeometry relative="1" as="geometry" />
        </mxCell>
        <mxCell id="WqGlyLl2qV-f8KXg5RLX-20" value="Shared AR" style="html=1;dropTarget=0;whiteSpace=wrap;fontSize=17;fillColor=#fff2cc;strokeColor=#d6b656;" parent="1" vertex="1">
          <mxGeometry x="630" y="80" width="150" height="40" as="geometry" />
        </mxCell>
        <mxCell id="WqGlyLl2qV-f8KXg5RLX-21" value="" style="shape=module;jettyWidth=8;jettyHeight=4;" parent="WqGlyLl2qV-f8KXg5RLX-20" vertex="1">
          <mxGeometry x="1" width="20" height="20" relative="1" as="geometry">
            <mxPoint x="-27" y="7" as="offset" />
          </mxGeometry>
        </mxCell>
        <mxCell id="WqGlyLl2qV-f8KXg5RLX-26" value="+ Objects" style="text;strokeColor=none;fillColor=none;align=left;verticalAlign=top;spacingLeft=4;spacingRight=4;overflow=hidden;rotatable=0;points=[[0,0.5],[1,0.5]];portConstraint=eastwest;whiteSpace=wrap;html=1;fontSize=16;" parent="1" vertex="1">
          <mxGeometry x="345" y="120" width="100" height="26" as="geometry" />
        </mxCell>
        <mxCell id="aIcxHGJeKE5EbABPJrg_-3" style="edgeStyle=orthogonalEdgeStyle;rounded=0;orthogonalLoop=1;jettySize=auto;html=1;exitX=0.75;exitY=0;exitDx=0;exitDy=0;entryX=0.75;entryY=1;entryDx=0;entryDy=0;" edge="1" parent="1" source="aIcxHGJeKE5EbABPJrg_-1" target="WqGlyLl2qV-f8KXg5RLX-4">
          <mxGeometry relative="1" as="geometry" />
        </mxCell>
        <mxCell id="aIcxHGJeKE5EbABPJrg_-1" value="CollabAR Core" style="html=1;whiteSpace=wrap;fontSize=17;fillColor=#dae8fc;strokeColor=#6c8ebf;" vertex="1" parent="1">
          <mxGeometry x="50" y="152" width="150" height="38" as="geometry" />
        </mxCell>
        <mxCell id="aIcxHGJeKE5EbABPJrg_-6" style="edgeStyle=orthogonalEdgeStyle;rounded=0;orthogonalLoop=1;jettySize=auto;html=1;exitX=0.25;exitY=0;exitDx=0;exitDy=0;entryX=0.25;entryY=1;entryDx=0;entryDy=0;" edge="1" parent="1" source="aIcxHGJeKE5EbABPJrg_-5" target="WqGlyLl2qV-f8KXg5RLX-20">
          <mxGeometry relative="1" as="geometry" />
        </mxCell>
        <mxCell id="aIcxHGJeKE5EbABPJrg_-5" value="CollabAR Core" style="html=1;whiteSpace=wrap;fontSize=17;fillColor=#dae8fc;strokeColor=#6c8ebf;" vertex="1" parent="1">
          <mxGeometry x="630" y="152" width="150" height="38" as="geometry" />
        </mxCell>
        <mxCell id="aIcxHGJeKE5EbABPJrg_-9" style="edgeStyle=orthogonalEdgeStyle;rounded=0;orthogonalLoop=1;jettySize=auto;html=1;exitX=1;exitY=0.5;exitDx=0;exitDy=0;entryX=-0.008;entryY=0.318;entryDx=0;entryDy=0;entryPerimeter=0;" edge="1" parent="1" source="WqGlyLl2qV-f8KXg5RLX-4" target="WqGlyLl2qV-f8KXg5RLX-12">
          <mxGeometry relative="1" as="geometry" />
        </mxCell>
        <mxCell id="aIcxHGJeKE5EbABPJrg_-10" value="State&lt;div&gt;Updates&lt;/div&gt;" style="edgeLabel;html=1;align=center;verticalAlign=middle;resizable=0;points=[];fontSize=16;labelBackgroundColor=none;" vertex="1" connectable="0" parent="aIcxHGJeKE5EbABPJrg_-9">
          <mxGeometry x="0.1558" y="2" relative="1" as="geometry">
            <mxPoint x="7" y="27" as="offset" />
          </mxGeometry>
        </mxCell>
        <mxCell id="aIcxHGJeKE5EbABPJrg_-11" style="edgeStyle=orthogonalEdgeStyle;rounded=0;orthogonalLoop=1;jettySize=auto;html=1;exitX=0;exitY=0.5;exitDx=0;exitDy=0;entryX=1;entryY=0.308;entryDx=0;entryDy=0;entryPerimeter=0;" edge="1" parent="1" source="WqGlyLl2qV-f8KXg5RLX-20" target="WqGlyLl2qV-f8KXg5RLX-10">
          <mxGeometry relative="1" as="geometry" />
        </mxCell>
        <mxCell id="aIcxHGJeKE5EbABPJrg_-12" value="Inputs" style="edgeLabel;html=1;align=center;verticalAlign=middle;resizable=0;points=[];fontSize=16;labelBackgroundColor=none;" vertex="1" connectable="0" parent="aIcxHGJeKE5EbABPJrg_-11">
          <mxGeometry x="-0.0345" relative="1" as="geometry">
            <mxPoint x="-25" y="20" as="offset" />
          </mxGeometry>
        </mxCell>
      </root>
    </mxGraphModel>
  </diagram>
</mxfile>
